grf
version=1
nRows=10
nColumns=73
inDegrees=yes
endheader
time	ground_force_1_vx	ground_force_1_vy	ground_force_1_vz	ground_force_1_px	ground_force_1_py	ground_force_1_pz	ground_moment_1_mx	ground_moment_1_my	ground_moment_1_mz	ground_force_2_vx	ground_force_2_vy	ground_force_2_vz	ground_force_2_px	ground_force_2_py	ground_force_2_pz	ground_moment_2_mx	ground_moment_2_my	ground_moment_2_mz	ground_force_3_vx	ground_force_3_vy	ground_force_3_vz	ground_force_3_px	ground_force_3_py	ground_force_3_pz	ground_moment_3_mx	ground_moment_3_my	ground_moment_3_mz	ground_force_4_vx	ground_force_4_vy	ground_force_4_vz	ground_force_4_px	ground_force_4_py	ground_force_4_pz	ground_moment_4_mx	ground_moment_4_my	ground_moment_4_mz	ground_force_5_vx	ground_force_5_vy	ground_force_5_vz	ground_force_5_px	ground_force_5_py	ground_force_5_pz	ground_moment_5_mx	ground_moment_5_my	ground_moment_5_mz	ground_force_6_vx	ground_force_6_vy	ground_force_6_vz	ground_force_6_px	ground_force_6_py	ground_force_6_pz	ground_moment_6_mx	ground_moment_6_my	ground_moment_6_mz	ground_force_7_vx	ground_force_7_vy	ground_force_7_vz	ground_force_7_px	ground_force_7_py	ground_force_7_pz	ground_moment_7_mx	ground_moment_7_my	ground_moment_7_mz	ground_force_8_vx	ground_force_8_vy	ground_force_8_vz	ground_force_8_px	ground_force_8_py	ground_force_8_pz	ground_moment_8_mx	ground_moment_8_my	ground_moment_8_mz
1.756000	0.000000	0.000000	0.000000	0.000000	0.000000	0.000000	0.000000	0.000000	0.000000	-13.037379	401.846674	-7.825691	0.465294	0.000000	0.390222	-0.000000	1.651548	0.000000	-12.601980	394.670075	-8.197423	0.471216	0.000000	0.393660	-0.000000	1.654883	0.000000	0.000000	0.000000	0.000000	0.000000	0.000000	0.000000	0.000000	0.000000	0.000000	-13.313001	394.248255	-8.433143	0.471103	0.000000	0.390111	-0.000000	1.665818	0.000000	-0.156973	10.924268	1.603092	0.238980	0.000000	0.409238	-0.000000	0.450126	-0.000000	0.000000	0.000000	0.000000	0.000000	0.000000	0.000000	0.000000	0.000000	0.000000	-12.948751	396.360159	-8.941358	0.468455	0.000000	0.390040	-0.000000	1.744943	0.000000
1.757000	0.000000	0.000000	0.000000	0.000000	0.000000	0.000000	0.000000	0.000000	0.000000	-12.773652	402.039453	-7.806552	0.464339	0.000000	0.390232	-0.000000	1.658361	0.000000	-12.375018	393.836837	-8.184126	0.470574	0.000000	0.393730	-0.000000	1.659062	0.000000	0.000000	0.000000	0.000000	0.000000	0.000000	0.000000	0.000000	0.000000	0.000000	-13.093084	393.508549	-8.413927	0.470375	0.000000	0.390176	-0.000000	1.673885	0.000000	0.000000	0.000000	0.000000	0.000000	0.000000	0.000000	0.000000	0.000000	0.000000	0.000000	0.000000	0.000000	0.000000	0.000000	0.000000	0.000000	0.000000	0.000000	-12.739995	396.469198	-8.906745	0.467482	0.000000	0.390069	-0.000000	1.758482	0.000000
1.758000	0.000000	0.000000	0.000000	0.000000	0.000000	0.000000	0.000000	0.000000	0.000000	-12.494591	402.250582	-7.788022	0.463394	0.000000	0.390240	-0.000000	1.664876	0.000000	-12.143922	392.951317	-8.172260	0.469960	0.000000	0.393804	-0.000000	1.661318	0.000000	0.000000	0.000000	0.000000	0.000000	0.000000	0.000000	0.000000	0.000000	0.000000	-12.871727	392.713979	-8.392172	0.469670	0.000000	0.390248	-0.000000	1.679981	0.000000	0.000000	0.000000	0.000000	0.000000	0.000000	0.000000	0.000000	0.000000	0.000000	0.000000	0.000000	0.000000	0.000000	0.000000	0.000000	0.000000	0.000000	0.000000	-12.521672	396.603097	-8.870493	0.466508	0.000000	0.390101	-0.000000	1.768399	0.000000
1.759000	0.000000	0.000000	0.000000	0.000000	0.000000	0.000000	0.000000	0.000000	0.000000	-12.200264	402.477285	-7.769843	0.462461	0.000000	0.390247	-0.000000	1.672112	0.000000	-11.908606	392.014910	-8.162833	0.469376	0.000000	0.393881	-0.000000	1.662094	0.000000	0.000000	0.000000	0.000000	0.000000	0.000000	0.000000	0.000000	0.000000	0.000000	-12.648189	391.865979	-8.369395	0.468992	0.000000	0.390325	-0.000000	1.684051	0.000000	0.000000	0.000000	0.000000	0.000000	0.000000	0.000000	0.000000	0.000000	0.000000	0.000000	0.000000	0.000000	0.000000	0.000000	0.000000	0.000000	0.000000	0.000000	-12.292226	396.762515	-8.833107	0.465534	0.000000	0.390136	-0.000000	1.775449	0.000000
1.760000	0.000000	0.000000	0.000000	0.000000	0.000000	0.000000	0.000000	0.000000	0.000000	-11.890906	402.715528	-7.751235	0.461543	0.000000	0.390253	-0.000000	1.680734	0.000000	-11.669130	391.029024	-8.156077	0.468821	0.000000	0.393960	-0.000000	1.661835	0.000000	2.751285	18.412547	-0.170639	0.295719	0.000000	0.348397	0.000000	0.118251	0.000000	-12.422216	390.966668	-8.347138	0.468343	0.000000	0.390407	-0.000000	1.686265	0.000000	0.000000	0.000000	0.000000	0.000000	0.000000	0.000000	0.000000	0.000000	0.000000	0.000000	0.000000	0.000000	0.000000	0.000000	0.000000	0.000000	0.000000	0.000000	-12.050821	396.947026	-8.794849	0.464565	0.000000	0.390173	-0.000000	1.780774	0.000000
1.761000	0.000000	0.000000	0.000000	0.000000	0.000000	0.000000	0.000000	0.000000	0.000000	-11.567412	402.960703	-7.730773	0.460641	0.000000	0.390258	-0.000000	1.690993	0.000000	-11.425817	389.995166	-8.151389	0.468294	0.000000	0.394041	-0.000000	1.660780	0.000000	2.610200	18.728421	-0.049820	0.300199	0.000000	0.350322	0.000000	0.144579	0.000000	-12.193636	390.018099	-8.326709	0.467725	0.000000	0.390493	-0.000000	1.687014	0.000000	-0.128861	11.882531	1.511058	0.246691	0.000000	0.408534	-0.000000	0.428963	-0.000000	0.000000	0.000000	0.000000	0.000000	0.000000	0.000000	0.000000	0.000000	0.000000	-11.796780	397.154354	-8.755948	0.463605	0.000000	0.390211	-0.000000	1.785545	0.000000
1.762000	0.000000	0.000000	0.000000	0.000000	0.000000	0.000000	0.000000	0.000000	0.000000	-11.231865	403.207918	-7.707078	0.459754	0.000000	0.390264	-0.000000	1.702933	0.000000	-11.179489	388.914573	-8.148020	0.467792	0.000000	0.394125	-0.000000	1.659045	0.000000	2.474279	19.166355	0.065244	0.304547	0.000000	0.352208	-0.000000	0.167962	0.000000	-11.962347	389.022300	-8.308798	0.467139	0.000000	0.390583	-0.000000	1.686769	0.000000	-0.088560	12.915003	1.421357	0.254487	0.000000	0.407484	-0.000000	0.407328	-0.000000	0.000000	0.000000	0.000000	0.000000	0.000000	0.000000	0.000000	0.000000	0.000000	-11.529662	397.380755	-8.716375	0.462656	0.000000	0.390250	-0.000000	1.790647	0.000000
1.763000	0.000000	0.000000	0.000000	0.000000	0.000000	0.000000	0.000000	0.000000	0.000000	-10.887816	403.452340	-7.679665	0.458881	0.000000	0.390271	-0.000000	1.716635	0.000000	-10.931907	387.788369	-8.145883	0.467312	0.000000	0.394212	-0.000000	1.656899	0.000000	2.345637	19.721366	0.175262	0.308720	0.000000	0.354041	-0.000000	0.188754	0.000000	-11.728443	387.981600	-8.293138	0.466585	0.000000	0.390675	-0.000000	1.685821	0.000000	-0.036514	14.016565	1.336145	0.262251	0.000000	0.406156	-0.000000	0.385797	-0.000000	0.000000	0.000000	0.000000	0.000000	0.000000	0.000000	0.000000	0.000000	0.000000	-11.249672	397.622015	-8.675376	0.461721	0.000000	0.390290	-0.000000	1.796534	0.000000
1.764000	0.000000	0.000000	0.000000	0.000000	0.000000	0.000000	0.000000	0.000000	0.000000	-10.539720	403.689772	-7.648864	0.458018	0.000000	0.390281	-0.000000	1.732236	0.000000	-10.685744	386.618263	-8.145482	0.466848	0.000000	0.394303	-0.000000	1.654831	0.000000	2.225755	20.387275	0.280814	0.312681	0.000000	0.355806	-0.000000	0.207165	0.000000	-11.492324	386.898289	-8.278936	0.466061	0.000000	0.390771	-0.000000	1.684244	0.000000	0.026113	15.181600	1.257232	0.269874	0.000000	0.404622	-0.000000	0.364869	-0.000000	0.000000	0.000000	0.000000	0.000000	0.000000	0.000000	0.000000	0.000000	0.000000	-10.958048	397.873712	-8.631817	0.460802	0.000000	0.390329	-0.000000	1.803323	0.000000
1.765000	0.000000	0.000000	0.000000	0.000000	0.000000	0.000000	0.000000	0.000000	0.000000	-10.191743	403.916845	-7.615088	0.457163	0.000000	0.390294	-0.000000	1.749707	0.000000	-10.443877	385.406925	-8.147271	0.466397	0.000000	0.394397	-0.000000	1.653298	-0.000000	2.116023	21.156741	0.382414	0.316405	0.000000	0.357481	-0.000000	0.223275	0.000000	-11.255101	385.774312	-8.265864	0.465565	0.000000	0.390871	-0.000000	1.682160	0.000000	0.097557	16.404145	1.185995	0.277266	0.000000	0.402944	-0.000000	0.344880	-0.000000	0.000000	0.000000	0.000000	0.000000	0.000000	0.000000	0.000000	0.000000	0.000000	-10.657370	398.131063	-8.585191	0.459899	0.000000	0.390370	-0.000000	1.811065	0.000000
